<?xml version="1.0" encoding="utf-8"?>
<!-- Generator: Adobe Illustrator 22.1.0, SVG Export Plug-In . SVG Version: 6.00 Build 0)  -->
<svg version="1.1" id="Layer_1" xmlns="http://www.w3.org/2000/svg" xmlns:xlink="http://www.w3.org/1999/xlink" x="0px" y="0px"
	 viewBox="0 0 40 40" style="enable-background:new 0 0 40 40;" xml:space="preserve">
<style type="text/css">
	.st0{fill:#2FA6DF;enable-background:new    ;}
	.st1{opacity:0.25;fill:#2FA6DF;}
</style>
<path class="st0" d="M30.4,19.1L19.1,7.9c-0.3-0.2-0.6-0.4-0.9-0.4c-0.2,0-0.6,0.1-0.9,0.4c-0.5,0.5-0.5,1.3,0,1.8l9.1,9.1H1.2
	C0.5,18.8,0,19.2,0,20s0.5,1.2,1.2,1.2h25.3l-9.1,9.1c-0.5,0.5-0.5,1.2,0,1.8c0.5,0.5,1.2,0.5,1.8,0l11.2-11.3
	c0.1-0.1,0.1-0.2,0.2-0.4c0.1-0.4,0.1-0.7,0-1C30.6,19.4,30.5,19.3,30.4,19.1z"/>
<circle class="st1" cx="32" cy="20" r="8"/>
</svg>
