<?xml version="1.0" encoding="utf-8"?>
<!-- Generator: Adobe Illustrator 22.1.0, SVG Export Plug-In . SVG Version: 6.00 Build 0)  -->
<svg version="1.1" id="Layer_1" xmlns="http://www.w3.org/2000/svg" xmlns:xlink="http://www.w3.org/1999/xlink" x="0px" y="0px"
	 viewBox="0 0 40 40" style="enable-background:new 0 0 40 40;" xml:space="preserve">
<style type="text/css">
	.st0{opacity:0.75;fill:#6A3B91;}
</style>
<path class="st0" d="M20,0C9,0,0,9,0,20c0,11,9,20,20,20s20-9,20-20C40,9,31,0,20,0z M28.1,20.9L15.8,27c-0.1,0.1-0.3,0.1-0.4,0.1
	c-0.2,0-0.4,0-0.5-0.1c-0.3-0.2-0.5-0.5-0.5-0.9V13.9c0-0.3,0.2-0.7,0.5-0.9c0.3-0.2,0.7-0.2,1,0l12.3,6.1c0.3,0.2,0.6,0.5,0.6,0.9
	S28.5,20.7,28.1,20.9z"/>
</svg>
