<?xml version="1.0" encoding="utf-8"?>
<!-- Generator: Adobe Illustrator 22.1.0, SVG Export Plug-In . SVG Version: 6.00 Build 0)  -->
<svg version="1.1" id="Layer_1" xmlns="http://www.w3.org/2000/svg" xmlns:xlink="http://www.w3.org/1999/xlink" x="0px" y="0px"
	 viewBox="0 0 40 40" style="enable-background:new 0 0 40 40;" xml:space="preserve">
<style type="text/css">
	.st0{fill:#F15756;}
</style>
<path class="st0" d="M39.4,33.6L21.5,2.4c-0.8-1.2-2.7-1.2-3.3,0L0.3,33.6c-0.4,0.6-0.4,1.4,0,1.9s1,1,1.8,1h36c0.8,0,1.4-0.4,1.8-1
	S39.8,34.1,39.4,33.6z M5.2,32.6L19.8,7.3l14.6,25.3H5.2z"/>
<path class="st0" d="M17.8,19v7.8c0,1.2,0.8,1.9,1.9,1.9c1.2,0,1.9-0.8,1.9-1.9V19c0-1.2-0.8-1.9-1.9-1.9C18.6,17,17.8,17.8,17.8,19
	z"/>
</svg>
