<?xml version="1.0" encoding="utf-8"?>
<!-- Generator: Adobe Illustrator 22.1.0, SVG Export Plug-In . SVG Version: 6.00 Build 0)  -->
<svg version="1.1" id="Layer_1" xmlns="http://www.w3.org/2000/svg" xmlns:xlink="http://www.w3.org/1999/xlink" x="0px" y="0px"
	 viewBox="0 0 40 40" style="enable-background:new 0 0 40 40;" xml:space="preserve">
<style type="text/css">
	.st0{fill:#28C787;}
	.st1{opacity:0.25;fill:#28C787;}
</style>
<path class="st0" d="M9.4,19.5c-0.1,0.3-0.1,0.6,0,1c0.1,0.1,0.1,0.2,0.3,0.4l11.2,11.3c0.5,0.5,1.2,0.5,1.8,0
	c0.5-0.5,0.5-1.3,0-1.8l-9.1-9.1h25.3c0.8,0,1.2-0.5,1.2-1.2s-0.5-1.2-1.2-1.2H13.5l9.1-9.1c0.5-0.5,0.5-1.2,0-1.8
	c-0.2-0.3-0.6-0.4-0.9-0.4c-0.3,0-0.6,0.1-0.9,0.4L9.6,19.1C9.5,19.3,9.4,19.4,9.4,19.5z"/>
<circle class="st1" cx="8" cy="20" r="8"/>
</svg>
